<?xml version="1.0" encoding="UTF-8"?>
<svg width="150px" height="100px" viewBox="0 0 150 100" version="1.1" xmlns="http://www.w3.org/2000/svg" xmlns:xlink="http://www.w3.org/1999/xlink">
    <!-- Generator: Sketch 49.3 (51167) - http://www.bohemiancoding.com/sketch -->
    <title>Searching</title>
    <desc>Created with Sketch.</desc>
    <defs>
        <polygon id="path-1" points="0.969224817 0.880150037 51.289 0.880150037 51.289 56.9998319 0.969224817 56.9998319"></polygon>
        <polygon id="path-3" points="0.000437229309 0.149 73.9697292 0.149 73.9697292 56.1986257 0.000437229309 56.1986257"></polygon>
    </defs>
    <g id="Searching" stroke="none" stroke-width="1" fill="none" fill-rule="evenodd">
        <g id="Group-3" transform="translate(87.289474, 20.351100)">
            <mask id="mask-2" fill="white">
                <use xlink:href="#path-1"></use>
            </mask>
            <g id="Clip-2"></g>
            <path d="M50.8116,1.6682 C50.8076,1.2462 50.4546,0.8752 50.0246,0.8802 C34.7356,1.0682 16.4516,1.6522 1.1616,1.6932 C0.9046,1.6942 0.9056,2.0862 1.1616,2.0922 C10.9386,2.3152 19.7236,2.4692 29.5026,2.4902 C33.7726,2.5002 42.0416,2.5232 46.3116,2.4942 C47.2316,2.4882 48.3006,2.6222 49.2226,2.4802 C48.7676,9.5492 49.3806,16.8932 49.5446,23.9572 C49.7976,34.8722 49.7376,45.8582 50.5166,56.7512 C50.5406,57.0792 51.0206,57.0862 51.0326,56.7512 C51.6356,38.4302 51.0136,19.9982 50.8116,1.6682" id="Fill-1" fill="#D3DAE6" mask="url(#mask-2)"></path>
        </g>
        <g id="Group-6" transform="translate(11.289474, 8.351100)">
            <mask id="mask-4" fill="white">
                <use xlink:href="#path-3"></use>
            </mask>
            <g id="Clip-5"></g>
            <path d="M72.6895,2.091 C72.7435,2.088 72.7975,2.088 72.8475,2.073 C72.7855,2.092 72.7355,2.095 72.6895,2.091 M1.6075,2.74 C1.3025,2.906 0.8685,2.579 1.6075,2.74 M73.0085,0.149 C48.9735,0.448 24.9385,0.748 0.9045,1.048 C0.4195,1.054 -0.0055,1.457 0.0005,1.952 C0.2255,19.882 0.5225,37.816 0.6095,55.746 C0.6125,56.351 1.5255,56.348 1.5465,55.746 C2.0515,41.587 2.0285,27.409 1.9135,13.244 C1.8855,9.865 2.2205,6.208 1.8825,2.809 C1.9265,2.821 1.9635,2.83 2.0125,2.845 C3.0735,3.157 4.7885,2.815 5.8855,2.802 C26.4175,2.579 46.9485,2.356 67.4795,2.132 C68.7285,2.118 70.6675,2.465 71.8775,2.089 C71.2295,3.808 71.8805,8.224 71.8445,9.764 C71.7925,12.008 71.7865,14.255 71.7355,16.498 C71.7085,17.691 73.5595,17.69 73.5865,16.498 C73.7035,11.37 73.8585,6.24 73.9695,1.111 C73.9815,0.596 73.5205,0.143 73.0085,0.149" id="Fill-4" fill="#D3DAE6" mask="url(#mask-4)"></path>
        </g>
        <path d="M49.4111,43.4942 L113.4111,43.4942 L49.4111,43.4942 Z" id="Fill-1" fill="#FFFFFF"></path>
        <polygon id="Stroke-2" fill="#00BFB3" fill-rule="nonzero" points="113.5 42 113.5 45 85.4821485 45 85.4821485 42"></polygon>
        <path d="M41.5,84 C39.5670034,84 38,82.4329966 38,80.5 L38,31.5 C38,29.5670034 39.5670034,28 41.5,28 L110.5,28 C112.432997,28 114,29.5670034 114,31.5 L114,80.5 C114,82.4329966 112.432997,84 110.5,84 L41.5,84 Z M41.5,81 L110.5,81 C110.776142,81 111,80.7761424 111,80.5 L111,31.5 C111,31.2238576 110.776142,31 110.5,31 L41.5,31 C41.2238576,31 41,31.2238576 41,31.5 L41,80.5 C41,80.7761424 41.2238576,81 41.5,81 Z" id="Stroke-3" fill="#535966" fill-rule="nonzero"></path>
        <polygon id="Stroke-2" fill="#00BFB3" fill-rule="nonzero" points="65.5 42 65.5 45 37.4821485 45 37.4821485 42"></polygon>
        <path d="M61,31.5 C61,40.613 53.613,48 44.5,48 C35.388,48 28,40.613 28,31.5 C28,22.388 35.388,15 44.5,15 C53.613,15 61,22.388 61,31.5" id="Fill-5" fill="#535966"></path>
        <path d="M49.4053,27.2582 C49.4053,28.2532 49.1153,29.0822 48.5353,29.7442 C47.9553,30.4072 47.1383,30.8532 46.0863,31.0822 L46.0863,31.1682 C47.3463,31.3252 48.2923,31.7182 48.9223,32.3442 C49.5513,32.9712 49.8673,33.8042 49.8673,34.8422 C49.8673,36.3532 49.3343,37.5192 48.2663,38.3382 C47.1993,39.1582 45.6813,39.5692 43.7123,39.5692 C41.9713,39.5692 40.5043,39.2852 39.3073,38.7202 L39.3073,36.4752 C39.9733,36.8042 40.6783,37.0592 41.4243,37.2372 C42.1693,37.4162 42.8843,37.5062 43.5723,37.5062 C44.7903,37.5062 45.6993,37.2802 46.3013,36.8292 C46.9023,36.3782 47.2033,35.6802 47.2033,34.7352 C47.2033,33.8972 46.8703,33.2802 46.2043,32.8872 C45.5383,32.4932 44.4923,32.2962 43.0673,32.2962 L41.7033,32.2962 L41.7033,30.2442 L43.0893,30.2442 C45.5953,30.2442 46.8483,29.3782 46.8483,27.6452 C46.8483,26.9722 46.6303,26.4522 46.1933,26.0872 C45.7573,25.7222 45.1123,25.5392 44.2593,25.5392 C43.6653,25.5392 43.0933,25.6232 42.5413,25.7912 C41.9893,25.9602 41.3383,26.2872 40.5863,26.7752 L39.3503,25.0132 C40.7903,23.9532 42.4623,23.4232 44.3673,23.4232 C45.9503,23.4232 47.1853,23.7632 48.0733,24.4442 C48.9613,25.1242 49.4053,26.0622 49.4053,27.2582" id="Fill-6" fill="#FFFFFF"></path>
        <path d="M87.1673092,42.8334513 C93.6108969,49.2769315 93.6108969,59.7232685 87.1673092,66.1667487 C80.722718,72.6112322 70.2761796,72.6112322 63.8326908,66.1667487 C57.3891031,59.7232685 57.3891031,49.2769315 63.8326001,42.8335421 C70.2761796,36.3889678 80.722718,36.3889678 87.1673092,42.8334513 Z M85.0460066,44.9547894 C79.7730144,39.6818853 71.2260836,39.6818853 65.9539934,44.9547894 C60.6820022,50.2266926 60.6820022,58.7735074 65.9540842,64.0455013 C71.2260836,69.3183147 79.7730144,69.3183147 85.0460066,64.0454106 C90.3179978,58.7735074 90.3179978,50.2266926 85.0460066,44.9547894 Z" id="Stroke-10" fill="#535966" fill-rule="nonzero"></path>
        <path d="M82.0859899,61.1780804 L79.9650101,59.0564196 C82.4949966,56.527245 82.4949966,52.426255 79.9648398,49.8969102 C77.4356263,47.3676966 73.3343737,47.3676966 70.8051602,49.8969102 L68.6838398,47.7755898 C72.3846263,44.0748034 78.3853737,44.0748034 82.0859899,47.7754196 C85.7880034,51.476245 85.7880034,57.477255 82.0859899,61.1780804 Z" id="Stroke-11" fill="#00BFB3" fill-rule="nonzero"></path>
        <polygon id="Stroke-12" fill="#535966" fill-rule="nonzero" points="85.5694057 66.7734261 87.6905943 64.6519739 95.7405943 72.7009739 93.6194057 74.8224261"></polygon>
        <path d="M96.4112,36.4939 L105.9112,36.4939" id="Stroke-13" stroke="#00BFB3" stroke-width="3"></path>
    </g>
</svg>